name Run_30002_IK.mot
datacolumns 164
datarows 4
range 0.69 0.72
endheader
time	         pelvis_tilt	         pelvis_list	     pelvis_rotation	           pelvis_tx	           pelvis_ty	           pelvis_tz	       hip_flexion_r	     hip_adduction_r	      hip_rotation_r	        knee_angle_r	       ankle_angle_r	       hip_flexion_l	     hip_adduction_l	      hip_rotation_l	        knee_angle_l	       ankle_angle_l	    lumbar_extension	      lumbar_bending	     lumbar_rotation	          arm_flex_r	           arm_add_r	           arm_rot_r	        elbow_flex_r	           pro_sup_r	          arm_flex_l	           arm_add_l	           arm_rot_l	        elbow_flex_l	           pro_sup_l	    subtalar_angle_r	         mtp_angle_r	    subtalar_angle_l	         mtp_angle_l	        wrist_flex_r	         wrist_dev_r	        wrist_flex_l	         wrist_dev_l	             LASI_tx	             LASI_ty	             LASI_tz	             RASI_tx	             RASI_ty	             RASI_tz	             LPSI_tx	             LPSI_ty	             LPSI_tz	             RPSI_tx	             RPSI_ty	             RPSI_tz	             RTH1_tx	             RTH1_ty	             RTH1_tz	             RTH2_tx	             RTH2_ty	             RTH2_tz	             RTH3_tx	             RTH3_ty	             RTH3_tz	             LTH1_tx	             LTH1_ty	             LTH1_tz	             LTH2_tx	             LTH2_ty	             LTH2_tz	             LTH3_tx	             LTH3_ty	             LTH3_tz	             RTB1_tx	             RTB1_ty	             RTB1_tz	             RTB2_tx	             RTB2_ty	             RTB2_tz	             RTB3_tx	             RTB3_ty	             RTB3_tz	             LTB1_tx	             LTB1_ty	             LTB1_tz	             LTB2_tx	             LTB2_ty	             LTB2_tz	             LTB3_tx	             LTB3_ty	             LTB3_tz	             RCAL_tx	             RCAL_ty	             RCAL_tz	             RTOE_tx	             RTOE_ty	             RTOE_tz	             RMT5_tx	             RMT5_ty	             RMT5_tz	             LCAL_tx	             LCAL_ty	             LCAL_tz	             LTOE_tx	             LTOE_ty	             LTOE_tz	             LMT5_tx	             LMT5_ty	             LMT5_tz	             LACR_tx	             LACR_ty	             LACR_tz	             RACR_tx	             RACR_ty	             RACR_tz	             CLAV_tx	             CLAV_ty	             CLAV_tz	               C7_tx	               C7_ty	               C7_tz	             RUA1_tx	             RUA1_ty	             RUA1_tz	             RUA2_tx	             RUA2_ty	             RUA2_tz	             RUA3_tx	             RUA3_ty	             RUA3_tz	             RLEL_tx	             RLEL_ty	             RLEL_tz	             RMEL_tx	             RMEL_ty	             RMEL_tz	             LUA1_tx	             LUA1_ty	             LUA1_tz	             LUA2_tx	             LUA2_ty	             LUA2_tz	             LUA3_tx	             LUA3_ty	             LUA3_tz	             LLEL_tx	             LLEL_ty	             LLEL_tz	             LMEL_tx	             LMEL_ty	             LMEL_tz	      RFAsuperior_tx	      RFAsuperior_ty	      RFAsuperior_tz	        RFAradius_tx	        RFAradius_ty	        RFAradius_tz	          RFAulna_tx	          RFAulna_ty	          RFAulna_tz	      LFAsuperior_tx	      LFAsuperior_ty	      LFAsuperior_tz	        LFAradius_tx	        LFAradius_ty	        LFAradius_tz	          LFAulna_tx	          LFAulna_ty	          LFAulna_tz	
0.69	        -13.15802493	         -1.23707988	         -2.63187706	          0.95850309	          0.98007948	         -0.35394795	         15.66857339	          7.38227015	          3.87124916	        -34.09269356	         22.68001271	         45.45357199	         -0.83088012	          0.05640448	        -90.40680154	          4.37088815	          0.24867820	          5.34649415	         10.37577105	        -17.74961769	        -22.56207295	         -8.51856570	        105.98293176	        109.24522248	        -34.69011494	        -14.18231156	         -1.54921556	        102.18374998	        100.63269015	          0.00000000	          0.00000000	          0.00000000	          0.00000000	          0.00000000	          0.00000000	          0.00000000	          0.00000000	          0.97689403	          1.02184211	         -0.48135281	          0.97440616	          1.01989389	         -0.22915276	          0.82301531	          1.08230499	         -0.41915539	          0.81597302	          1.07909182	         -0.30550355	          0.89044082	          0.90252695	         -0.18238472	          0.83766198	          0.75682941	         -0.21277545	          0.88029158	          0.60209521	         -0.23241627	          0.94795729	          0.89505652	         -0.53421719	          0.94542077	          0.73783536	         -0.50483720	          1.05469953	          0.63985987	         -0.50048015	          0.86649678	          0.35168371	         -0.32215503	          0.78136758	          0.33666086	         -0.24819622	          0.74627547	          0.20013501	         -0.33675703	          1.06008857	          0.44319911	         -0.43926860	          0.92227037	          0.45227216	         -0.49464591	          0.86682686	          0.34266484	         -0.44314290	          0.57111642	          0.12371997	         -0.33011981	          0.80415186	          0.06995696	         -0.37385030	          0.75853102	          0.05101454	         -0.27388657	          0.68136518	          0.36671915	         -0.42009121	          0.81178078	          0.16762047	         -0.42107479	          0.74998479	          0.18386823	         -0.51387166	          0.94731131	          1.51391968	         -0.49361757	          0.99528567	          1.47883263	         -0.17315083	          1.03979196	          1.45603186	         -0.30983241	          0.91093895	          1.52649256	         -0.33113766	          0.90408253	          1.37370738	         -0.09833346	          0.95128469	          1.31410945	         -0.08309130	          0.89626111	          1.23287470	         -0.03611928	          0.87431850	          1.17151603	         -0.00716435	          0.86208637	          1.14738010	         -0.09374089	          0.83093524	          1.43626916	         -0.53735728	          0.84364431	          1.36118186	         -0.57640581	          0.75769916	          1.31537452	         -0.59468408	          0.72563067	          1.25655789	         -0.61875004	          0.71133850	          1.23501118	         -0.53186577	          0.97271833	          1.12618523	         -0.03036253	          1.10515130	          1.11165309	         -0.15319839	          1.09902872	          1.05920855	         -0.10840026	          0.77219841	          1.18226324	         -0.62085959	          0.93579215	          1.11740573	         -0.54480871	          0.90091789	          1.06424439	         -0.57882749	
0.7	        -13.09748986	         -0.71999973	         -2.10920190	          0.96102790	          0.98672290	         -0.35442424	         12.17468558	          6.52615710	          3.81633689	        -31.02497959	         20.01036254	         46.42463732	         -0.08723314	         -0.07789071	        -86.94045036	          4.80514111	          0.56180765	          4.52093106	         10.81472555	        -17.25866599	        -22.03194234	         -8.69096997	        108.50991771	        110.31806041	        -36.24246422	        -14.45068000	         -2.13137569	        104.20057463	        100.31437310	          0.00000000	          0.00000000	          0.00000000	          0.00000000	          0.00000000	          0.00000000	          0.00000000	          0.00000000	          0.97810391	          1.02899943	         -0.48091253	          0.97753209	          1.02495928	         -0.22938692	          0.82457823	          1.08889592	         -0.41788678	          0.81873520	          1.08496012	         -0.30413532	          0.89108687	          0.90719362	         -0.18316569	          0.83053590	          0.76436334	         -0.21230882	          0.86450108	          0.60805703	         -0.23334208	          0.95054370	          0.90413170	         -0.53515804	          0.95095111	          0.74609161	         -0.50525145	          1.06250316	          0.65133488	         -0.49989348	          0.84195717	          0.35694848	         -0.32176532	          0.75688053	          0.34337172	         -0.24834799	          0.72128947	          0.20634226	         -0.33658709	          1.07668765	          0.45170728	         -0.43950218	          0.93799858	          0.45068823	         -0.49302987	          0.89145344	          0.33638491	         -0.44166105	          0.54585818	          0.13403459	         -0.32924601	          0.77464243	          0.06953296	         -0.37470379	          0.72865319	          0.05171977	         -0.27438022	          0.70467249	          0.34518044	         -0.41806626	          0.85206438	          0.15830526	         -0.41984111	          0.78798351	          0.16823416	         -0.51148091	          0.94493427	          1.52113201	         -0.49385321	          0.99795631	          1.48656241	         -0.17463304	          1.04058770	          1.46326384	         -0.31232272	          0.91137623	          1.53278743	         -0.33103828	          0.90843130	          1.38045015	         -0.09916109	          0.95705249	          1.32131460	         -0.08470314	          0.90461111	          1.23880882	         -0.03764321	          0.88369868	          1.17669160	         -0.00912819	          0.87054691	          1.15349485	         -0.09612356	          0.82669742	          1.44629309	         -0.53517961	          0.83766856	          1.37090708	         -0.57523023	          0.75098994	          1.32617565	         -0.59225158	          0.71712659	          1.26819095	         -0.61480958	          0.70477482	          1.24679612	         -0.52789510	          0.98340709	          1.13702988	         -0.03543402	          1.11332649	          1.13159941	         -0.16106612	          1.11187834	          1.07860835	         -0.11655763	          0.76428770	          1.19532823	         -0.61779357	          0.92976645	          1.13248722	         -0.54552136	          0.89503779	          1.07855594	         -0.57843664	
0.71	        -12.98636427	         -0.17660735	         -1.45899124	          0.96395606	          0.99391006	         -0.35488328	          8.73208088	          5.62057929	          3.43668778	        -28.02298356	         16.51735246	         47.02002512	          0.72323869	         -0.25763238	        -82.96457753	          5.14538256	          0.83513961	          3.63556558	         11.01685278	        -16.83698193	        -21.50492909	         -8.67223817	        111.02644300	        111.46009452	        -37.79437408	        -14.66820558	         -2.91683125	        106.20776197	        100.78354430	          0.00000000	          0.00000000	          0.00000000	          0.00000000	          0.00000000	          0.00000000	          0.00000000	          0.00000000	          0.97939673	          1.03676815	         -0.48034830	          0.98120756	          1.03048234	         -0.22956153	          0.82617308	          1.09615712	         -0.41636232	          0.82204007	          1.09132878	         -0.30272575	          0.89304736	          0.91229236	         -0.18403528	          0.82438633	          0.77270047	         -0.21172881	          0.84969267	          0.61559244	         -0.23373454	          0.95318895	          0.91374086	         -0.53584012	          0.95545533	          0.75478776	         -0.50502393	          1.06888341	          0.66276940	         -0.49904261	          0.81861304	          0.36392454	         -0.32087615	          0.73370101	          0.35193479	         -0.24812894	          0.69762366	          0.21437398	         -0.33603985	          1.09190269	          0.46008563	         -0.43988663	          0.95297434	          0.44838757	         -0.49089807	          0.91646178	          0.32992276	         -0.43983937	          0.52276164	          0.14682482	         -0.32826469	          0.74541952	          0.06894403	         -0.37470848	          0.69933006	          0.05286958	         -0.27468053	          0.72984890	          0.32271142	         -0.41456241	          0.89310982	          0.14973128	         -0.41902909	          0.82685440	          0.15363104	         -0.50905137	          0.94302501	          1.52888984	         -0.49413156	          1.00060269	          1.49480008	         -0.17623971	          1.04147974	          1.47117856	         -0.31482117	          0.91195571	          1.53955904	         -0.33094384	          0.91257374	          1.38778879	         -0.09988321	          0.96263337	          1.32910568	         -0.08637113	          0.91249031	          1.24558991	         -0.03904702	          0.89252366	          1.18281026	         -0.01091939	          0.87802001	          1.16054858	         -0.09821684	          0.82310545	          1.45694509	         -0.53312770	          0.83243234	          1.38103410	         -0.57383287	          0.74506540	          1.33732511	         -0.58966728	          0.70944096	          1.28013569	         -0.61068699	          0.69906139	          1.25895607	         -0.52365236	          0.99294064	          1.14822720	         -0.04044000	          1.11986776	          1.15199409	         -0.16887474	          1.12291019	          1.09884235	         -0.12458950	          0.75700633	          1.20833594	         -0.61461799	          0.92445251	          1.14773091	         -0.54569775	          0.89024632	          1.09338542	         -0.57853794	
0.72	        -12.89900175	          0.38674994	         -0.72615705	          0.96712962	          1.00132059	         -0.35528351	          5.48883742	          4.71195603	          2.70186684	        -25.18910098	         12.29904005	         47.32104541	          1.58488414	         -0.49966602	        -78.51613040	          5.45864131	          1.11857006	          2.70223423	         11.05084324	        -16.51160411	        -21.02045514	         -8.45604745	        113.52179555	        112.47953350	        -39.31732811	        -14.84555111	         -3.79675122	        108.13723560	        101.42353752	          0.00000000	          0.00000000	          0.00000000	          0.00000000	          0.00000000	          0.00000000	          0.00000000	          0.00000000	          0.98089669	          1.04482909	         -0.47983056	          0.98531643	          1.03633162	         -0.22959585	          0.82791376	          1.10380403	         -0.41469474	          0.82578156	          1.09801758	         -0.30119674	          0.89560968	          0.91770096	         -0.18489501	          0.81922529	          0.78153150	         -0.21114868	          0.83604048	          0.62433301	         -0.23344651	          0.95551414	          0.92348632	         -0.53638045	          0.95895732	          0.76375732	         -0.50412694	          1.07370048	          0.67376816	         -0.49786610	          0.79692683	          0.37224191	         -0.31941255	          0.71198992	          0.36187155	         -0.24741687	          0.67565309	          0.22390219	         -0.33518929	          1.10558477	          0.46817634	         -0.43997329	          0.96720945	          0.44529250	         -0.48830507	          0.94173977	          0.32343110	         -0.43765132	          0.50208044	          0.16151818	         -0.32729471	          0.71663993	          0.06826078	         -0.37418697	          0.67070563	          0.05447510	         -0.27487696	          0.75683903	          0.29967671	         -0.40967330	          0.93476298	          0.14214335	         -0.41825146	          0.86660212	          0.14039435	         -0.50665564	          0.94162347	          1.53689077	         -0.49442156	          1.00337754	          1.50321121	         -0.17797429	          1.04248531	          1.47942782	         -0.31720211	          0.91262101	          1.54655728	         -0.33095886	          0.91695590	          1.39568070	         -0.10025344	          0.96809529	          1.33725494	         -0.08803528	          0.91976841	          1.25305850	         -0.04021026	          0.90083607	          1.18967843	         -0.01245137	          0.88472852	          1.16821130	         -0.09989766	          0.82026244	          1.46769911	         -0.53129952	          0.82802493	          1.39121564	         -0.57225056	          0.73987011	          1.34869187	         -0.58683189	          0.70265371	          1.29215149	         -0.60645527	          0.69416360	          1.27111672	         -0.51926122	          1.00160459	          1.15985373	         -0.04497676	          1.12487502	          1.17242889	         -0.17643170	          1.13208647	          1.11927554	         -0.13252825	          0.75048282	          1.22105939	         -0.61141202	          0.91986136	          1.16275147	         -0.54559740	          0.88622360	          1.10810064	         -0.57865049	
